<svg version="1.1" viewBox="0.0 0.0 144.0 144.0" fill="none" stroke="none" stroke-linecap="square" stroke-miterlimit="10" xmlns:xlink="http://www.w3.org/1999/xlink" xmlns="http://www.w3.org/2000/svg"><clipPath id="p.0"><path d="m0 0l144.0 0l0 144.0l-144.0 0l0 -144.0z" clip-rule="nonzero"/></clipPath><g clip-path="url(#p.0)"><path fill="#000000" fill-opacity="0.0" d="m0 0l144.0 0l0 144.0l-144.0 0z" fill-rule="evenodd"/><path fill="#a50021" fill-opacity="0.6863" d="m40.992622 72.549515l61.63826 0l-0.82227325 5.8935623c-4.9636917 26.31633 -16.409859 44.77935 -29.76223 44.999878c-13.462421 0.22227478 -25.088463 -18.1512 -30.158268 -44.59059z" fill-rule="evenodd"/><path fill="#e0cbee" d="m68.769035 124.42823l0 0c0 -0.5950775 0.48240662 -1.0774841 1.0774841 -1.0774841l4.3098297 0l0 0c0.2857666 0 0.5598297 0.11351776 0.7618942 0.3155899c0.20207214 0.20206451 0.3155899 0.47612762 0.3155899 0.7618942l0 10.648293c0 0.5950928 -0.48240662 1.0774994 -1.0774841 1.0774994l-4.3098297 0c-0.5950775 0 -1.0774841 -0.48240662 -1.0774841 -1.0774994z" fill-rule="evenodd"/><path stroke="#922690" stroke-width="5.333333333333333" stroke-linejoin="round" stroke-linecap="butt" d="m68.769035 124.42823l0 0c0 -0.5950775 0.48240662 -1.0774841 1.0774841 -1.0774841l4.3098297 0l0 0c0.2857666 0 0.5598297 0.11351776 0.7618942 0.3155899c0.20207214 0.20206451 0.3155899 0.47612762 0.3155899 0.7618942l0 10.648293c0 0.5950928 -0.48240662 1.0774994 -1.0774841 1.0774994l-4.3098297 0c-0.5950775 0 -1.0774841 -0.48240662 -1.0774841 -1.0774994z" fill-rule="evenodd"/><path fill="#000000" fill-opacity="0.0" d="m40.92 65.18489l0 0c0 -32.05158 13.914993 -58.03452 31.080002 -58.03452l0 0c8.242928 0 16.148247 6.114333 21.976875 16.997917c5.828636 10.883583 9.103127 25.644894 9.103127 41.036602l0 0c0 32.051582 -13.914993 58.034523 -31.080002 58.034523l0 0c-17.165009 0 -31.080002 -25.98294 -31.080002 -58.034523z" fill-rule="evenodd"/><path stroke="#922690" stroke-width="5.333333333333333" stroke-linejoin="round" stroke-linecap="butt" d="m40.92 65.18489l0 0c0 -32.05158 13.914993 -58.03452 31.080002 -58.03452l0 0c8.242928 0 16.148247 6.114333 21.976875 16.997917c5.828636 10.883583 9.103127 25.644894 9.103127 41.036602l0 0c0 32.051582 -13.914993 58.034523 -31.080002 58.034523l0 0c-17.165009 0 -31.080002 -25.98294 -31.080002 -58.034523z" fill-rule="evenodd"/><path fill="#000000" fill-opacity="0.0" d="m53.568714 49.40412l0 0c0 -5.9495773 3.6026344 -11.435188 9.420681 -14.344555c5.8180466 -2.9093666 12.944077 -2.788723 18.63417 0.31547165c5.690094 3.1041985 9.056778 8.707798 8.80368 14.653088l0 0c0.25309753 -5.9452896 -3.1135864 -11.548889 -8.80368 -14.653088c-5.690094 -3.1041946 -12.816124 -3.2248383 -18.63417 -0.31547165c-5.8180466 2.9093666 -9.420681 8.394978 -9.420681 14.344555z" fill-rule="evenodd"/><path stroke="#922690" stroke-width="2.6666666666666665" stroke-linejoin="round" stroke-linecap="butt" d="m53.568714 49.40412l0 0c0 -5.9495773 3.6026344 -11.435188 9.420681 -14.344555c5.8180466 -2.9093666 12.944077 -2.788723 18.63417 0.31547165c5.690094 3.1041985 9.056778 8.707798 8.80368 14.653088l0 0c0.25309753 -5.9452896 -3.1135864 -11.548889 -8.80368 -14.653088c-5.690094 -3.1041946 -12.816124 -3.2248383 -18.63417 -0.31547165c-5.8180466 2.9093666 -9.420681 8.394978 -9.420681 14.344555z" fill-rule="evenodd"/><path fill="#000000" fill-opacity="0.0" d="m44.028023 49.409584c8.428375 5.550747 17.787655 12.409523 27.81395 12.251549c9.879456 0.23374557 18.368126 -5.7170486 28.13005 -11.570946" fill-rule="evenodd"/><path stroke="#922690" stroke-width="1.0" stroke-linejoin="round" stroke-linecap="round" stroke-dasharray="0.0,4.0" d="m44.028023 49.409584c8.428375 5.550747 17.787655 12.409523 27.81395 12.251549c9.879456 0.23374557 18.368126 -5.7170486 28.13005 -11.570946" fill-rule="evenodd"/><path fill="#000000" fill-opacity="0.0" d="m42.134224 47.936222l0 0c3.8049126 -9.2911 15.835907 -15.720409 29.582237 -15.808617c13.74633 -0.08821106 25.9421 6.1856422 29.987396 15.426369l-0.07839966 0.016979218l0 0c-4.0379715 -9.204144 -16.200584 -15.452164 -29.908531 -15.36422c-13.707943 0.087947845 -25.706135 6.4909744 -29.5042 15.745392z" fill-rule="evenodd"/><path stroke="#922690" stroke-width="5.333333333333333" stroke-linejoin="round" stroke-linecap="butt" d="m42.134224 47.936222l0 0c3.8049126 -9.2911 15.835907 -15.720409 29.582237 -15.808617c13.74633 -0.08821106 25.9421 6.1856422 29.987396 15.426369l-0.07839966 0.016979218l0 0c-4.0379715 -9.204144 -16.200584 -15.452164 -29.908531 -15.36422c-13.707943 0.087947845 -25.706135 6.4909744 -29.5042 15.745392z" fill-rule="evenodd"/><path fill="#000000" fill-opacity="0.0" d="m67.80273 121.21795l0 0c-8.311897 0 -15.137924 -28.96331 -15.457207 -65.58597l15.457207 -2.619976z" fill-rule="evenodd"/><path fill="#000000" fill-opacity="0.0" d="m67.80273 121.21795l0 0c-8.311897 0 -15.137924 -28.96331 -15.457207 -65.58597" fill-rule="evenodd"/><path stroke="#922690" stroke-width="2.0" stroke-linejoin="round" stroke-linecap="butt" d="m67.80273 121.21795l0 0c-8.311897 0 -15.137924 -28.96331 -15.457207 -65.58597" fill-rule="evenodd"/><path fill="#000000" fill-opacity="0.0" d="m75.81145 121.217865l0 0c8.325279 0 15.155205 -29.090454 15.448807 -65.800545l-15.448807 -2.4053955z" fill-rule="evenodd"/><path fill="#000000" fill-opacity="0.0" d="m75.81145 121.217865l0 0c8.325279 0 15.155205 -29.090454 15.448807 -65.800545" fill-rule="evenodd"/><path stroke="#922690" stroke-width="2.0" stroke-linejoin="round" stroke-linecap="butt" d="m75.81145 121.217865l0 0c8.325279 0 15.155205 -29.090454 15.448807 -65.800545" fill-rule="evenodd"/><path fill="#000000" fill-opacity="0.0" d="m71.71911 121.76695l0 -59.812286" fill-rule="evenodd"/><path stroke="#922690" stroke-width="2.0" stroke-linejoin="round" stroke-linecap="butt" d="m71.71911 121.76695l0 -59.812286" fill-rule="evenodd"/></g></svg>