<svg version="1.1" viewBox="0.0 0.0 144.0 144.0" fill="none" stroke="none" stroke-linecap="square" stroke-miterlimit="10" xmlns:xlink="http://www.w3.org/1999/xlink" xmlns="http://www.w3.org/2000/svg"><clipPath id="p.0"><path d="m0 0l144.0 0l0 144.0l-144.0 0l0 -144.0z" clip-rule="nonzero"/></clipPath><g clip-path="url(#p.0)"><path fill="#000000" fill-opacity="0.0" d="m0 0l144.0 0l0 144.0l-144.0 0z" fill-rule="evenodd"/><path fill="#a50021" fill-opacity="0.6863" d="m41.45727 56.12888l61.638264 0l-0.82227325 5.893566c-4.9636917 26.31633 -16.409859 44.77935 -29.76223 44.999878c-13.462425 0.22226715 -25.088467 -18.1512 -30.158272 -44.590595z" fill-rule="evenodd"/><path fill="#000000" fill-opacity="0.0" d="m104.47035 34.083153l0 0c-0.17385864 40.704018 -14.702484 73.50933 -32.58136 73.567986c-17.87888 0.058647156 -32.448967 -32.651207 -32.674347 -73.35391z" fill-rule="evenodd"/><path stroke="#922690" stroke-width="4.0" stroke-linejoin="round" stroke-linecap="butt" d="m104.47035 34.083153l0 0c-0.17385864 40.704018 -14.702484 73.50933 -32.58136 73.567986c-17.87888 0.058647156 -32.448967 -32.651207 -32.674347 -73.35391z" fill-rule="evenodd"/><path fill="#000000" fill-opacity="0.0" d="m39.214645 34.297222l65.25984 -0.20989227" fill-rule="evenodd"/><path stroke="#dfc9ed" stroke-width="6.666666666666667" stroke-linejoin="round" stroke-linecap="butt" d="m39.214645 34.297222l65.25984 -0.20989227" fill-rule="evenodd"/><path fill="#000000" fill-opacity="0.0" d="m104.14411 35.126743l7.158188 -10.977234" fill-rule="evenodd"/><path stroke="#922690" stroke-width="5.333333333333333" stroke-linejoin="round" stroke-linecap="butt" d="m104.14411 35.126743l7.158188 -10.977234" fill-rule="evenodd"/><path fill="#000000" fill-opacity="0.0" d="m39.85589 35.126743l-7.158188 -10.977234" fill-rule="evenodd"/><path stroke="#922690" stroke-width="5.333333333333333" stroke-linejoin="round" stroke-linecap="butt" d="m39.85589 35.126743l-7.158188 -10.977234" fill-rule="evenodd"/><path fill="#000000" fill-opacity="0.0" d="m39.567722 35.850933l0 0c0 -4.6076546 6.556267 -8.843588 17.071861 -11.02994c10.515591 -2.1863537 23.29382 -1.9703579 33.273205 0.5624275c9.979393 2.5327873 15.549774 6.9736996 14.504715 11.563692l0 0c1.0450592 -4.5899925 -4.525322 -9.030905 -14.504715 -11.563692c-9.979385 -2.5327854 -22.757614 -2.7487812 -33.273205 -0.5624275c-10.5155945 2.1863518 -17.071861 6.422285 -17.071861 11.02994z" fill-rule="evenodd"/><path stroke="#922690" stroke-width="5.333333333333333" stroke-linejoin="round" stroke-linecap="butt" d="m39.567722 35.850933l0 0c0 -4.6076546 6.556267 -8.843588 17.071861 -11.02994c10.515591 -2.1863537 23.29382 -1.9703579 33.273205 0.5624275c9.979393 2.5327873 15.549774 6.9736996 14.504715 11.563692l0 0c1.0450592 -4.5899925 -4.525322 -9.030905 -14.504715 -11.563692c-9.979385 -2.5327854 -22.757614 -2.7487812 -33.273205 -0.5624275c-10.5155945 2.1863518 -17.071861 6.422285 -17.071861 11.02994z" fill-rule="evenodd"/><path fill="#000000" fill-opacity="0.0" d="m39.171825 35.056644c10.081966 1.1678963 21.238476 3.260357 32.305523 3.1982307c11.499939 0.17476654 20.154488 -1.4432716 32.672752 -3.0205917" fill-rule="evenodd"/><path stroke="#922690" stroke-width="1.0" stroke-linejoin="round" stroke-linecap="round" stroke-dasharray="0.0,4.0" d="m39.171825 35.056644c10.081966 1.1678963 21.238476 3.260357 32.305523 3.1982307c11.499939 0.17476654 20.154488 -1.4432716 32.672752 -3.0205917" fill-rule="evenodd"/><path fill="#e0cbee" d="m68.615074 109.203964l0 0c0 -0.59508514 0.48240662 -1.0774918 1.0774841 -1.0774918l4.3098297 0l0 0c0.2857666 0 0.5598297 0.11351776 0.7618942 0.3155899c0.20207214 0.20206451 0.3155899 0.47613525 0.3155899 0.76190186l0 10.648293c0 0.59508514 -0.48240662 1.0774918 -1.0774841 1.0774918l-4.3098297 0c-0.5950775 0 -1.0774841 -0.48240662 -1.0774841 -1.0774918z" fill-rule="evenodd"/><path stroke="#922690" stroke-width="5.333333333333333" stroke-linejoin="round" stroke-linecap="butt" d="m68.615074 109.203964l0 0c0 -0.59508514 0.48240662 -1.0774918 1.0774841 -1.0774918l4.3098297 0l0 0c0.2857666 0 0.5598297 0.11351776 0.7618942 0.3155899c0.20207214 0.20206451 0.3155899 0.47613525 0.3155899 0.76190186l0 10.648293c0 0.59508514 -0.48240662 1.0774918 -1.0774841 1.0774918l-4.3098297 0c-0.5950775 0 -1.0774841 -0.48240662 -1.0774841 -1.0774918z" fill-rule="evenodd"/><path fill="#000000" fill-opacity="0.0" d="m67.99144 105.73525l0 0c-4.1025314 0 -8.037037 -7.1859665 -10.937965 -19.977058c-2.9009285 -12.7911 -4.530655 -30.139545 -4.530655 -48.228886l15.46862 0z" fill-rule="evenodd"/><path fill="#000000" fill-opacity="0.0" d="m67.99144 105.73525l0 0c-4.1025314 0 -8.037037 -7.1859665 -10.937965 -19.977058c-2.9009285 -12.7911 -4.530655 -30.139545 -4.530655 -48.228886" fill-rule="evenodd"/><path stroke="#922690" stroke-width="2.0" stroke-linejoin="round" stroke-linecap="butt" d="m67.99144 105.73525l0 0c-4.1025314 0 -8.037037 -7.1859665 -10.937965 -19.977058c-2.9009285 -12.7911 -4.530655 -30.139545 -4.530655 -48.228886" fill-rule="evenodd"/><path fill="#000000" fill-opacity="0.0" d="m76.00957 105.73525l0 0c4.1025314 0 8.037041 -7.1859665 10.937965 -19.977058c2.9009323 -12.7911 4.530655 -30.139545 4.530655 -48.228886l-15.46862 0z" fill-rule="evenodd"/><path fill="#000000" fill-opacity="0.0" d="m76.00957 105.73525l0 0c4.1025314 0 8.037041 -7.1859665 10.937965 -19.977058c2.9009323 -12.7911 4.530655 -30.139545 4.530655 -48.228886" fill-rule="evenodd"/><path stroke="#922690" stroke-width="2.0" stroke-linejoin="round" stroke-linecap="butt" d="m76.00957 105.73525l0 0c4.1025314 0 8.037041 -7.1859665 10.937965 -19.977058c2.9009323 -12.7911 4.530655 -30.139545 4.530655 -48.228886" fill-rule="evenodd"/><path fill="#000000" fill-opacity="0.0" d="m71.90783 106.284256l0 -67.26888" fill-rule="evenodd"/><path stroke="#922690" stroke-width="2.0" stroke-linejoin="round" stroke-linecap="butt" d="m71.90783 106.284256l0 -67.26888" fill-rule="evenodd"/></g></svg>