<svg version="1.1" viewBox="0.0 0.0 144.0 144.0" fill="none" stroke="none" stroke-linecap="square" stroke-miterlimit="10" xmlns:xlink="http://www.w3.org/1999/xlink" xmlns="http://www.w3.org/2000/svg"><clipPath id="p.0"><path d="m0 0l144.0 0l0 144.0l-144.0 0l0 -144.0z" clip-rule="nonzero"/></clipPath><g clip-path="url(#p.0)"><path fill="#000000" fill-opacity="0.0" d="m0 0l144.0 0l0 144.0l-144.0 0z" fill-rule="evenodd"/><path fill="#e0cbee" d="m90.42958 92.48288l0 0c0 -0.5950775 0.48240662 -1.0774918 1.0774841 -1.0774918l4.3098297 0l0 0c0.2857666 0 0.5598297 0.11352539 0.76190186 0.3155899c0.20206451 0.20207214 0.31558228 0.47613525 0.31558228 0.76190186l0 25.63443c0 0.5950775 -0.48240662 1.0774841 -1.0774841 1.0774841l-4.3098297 0c-0.5950775 0 -1.0774841 -0.48240662 -1.0774841 -1.0774841z" fill-rule="evenodd"/><path stroke="#922690" stroke-width="5.333333333333333" stroke-linejoin="round" stroke-linecap="butt" d="m90.42958 92.48288l0 0c0 -0.5950775 0.48240662 -1.0774918 1.0774841 -1.0774918l4.3098297 0l0 0c0.2857666 0 0.5598297 0.11352539 0.76190186 0.3155899c0.20206451 0.20207214 0.31558228 0.47613525 0.31558228 0.76190186l0 25.63443c0 0.5950775 -0.48240662 1.0774841 -1.0774841 1.0774841l-4.3098297 0c-0.5950775 0 -1.0774841 -0.48240662 -1.0774841 -1.0774841z" fill-rule="evenodd"/><path fill="#e0cbee" d="m79.600525 29.549469l0 0c0 1.9414806 6.2955246 3.5153618 14.061455 3.5153618c7.76593 0 14.061455 -1.5738811 14.061455 -3.5153618l0 73.650894c0 1.9414825 -6.2955246 3.5153656 -14.061455 3.5153656c-7.76593 0 -14.061455 -1.573883 -14.061455 -3.5153656z" fill-rule="evenodd"/><path fill="#ecdff4" d="m79.600525 29.549469l0 0c0 -1.9414825 6.2955246 -3.5153656 14.061455 -3.5153656c7.76593 0 14.061455 1.573883 14.061455 3.5153656l0 0c0 1.9414806 -6.2955246 3.5153618 -14.061455 3.5153618c-7.76593 0 -14.061455 -1.5738811 -14.061455 -3.5153618z" fill-rule="evenodd"/><path fill="#000000" fill-opacity="0.0" d="m107.723434 29.549469l0 0c0 1.9414806 -6.2955246 3.5153618 -14.061455 3.5153618c-7.76593 0 -14.061455 -1.5738811 -14.061455 -3.5153618l0 0c0 -1.9414825 6.2955246 -3.5153656 14.061455 -3.5153656c7.76593 0 14.061455 1.573883 14.061455 3.5153656l0 73.650894c0 1.9414825 -6.2955246 3.5153656 -14.061455 3.5153656c-7.76593 0 -14.061455 -1.573883 -14.061455 -3.5153656l0 -73.650894" fill-rule="evenodd"/><path stroke="#922690" stroke-width="5.333333333333333" stroke-linejoin="round" stroke-linecap="butt" d="m107.723434 29.549469l0 0c0 1.9414806 -6.2955246 3.5153618 -14.061455 3.5153618c-7.76593 0 -14.061455 -1.5738811 -14.061455 -3.5153618l0 0c0 -1.9414825 6.2955246 -3.5153656 14.061455 -3.5153656c7.76593 0 14.061455 1.573883 14.061455 3.5153656l0 73.650894c0 1.9414825 -6.2955246 3.5153656 -14.061455 3.5153656c-7.76593 0 -14.061455 -1.573883 -14.061455 -3.5153656l0 -73.650894" fill-rule="evenodd"/><path fill="#922690" d="m44.989956 98.308556l0 0c0 -0.98366547 0.7974205 -1.7810822 1.781086 -1.7810822l7.1241302 0l0 0c0.47237396 0 0.9253998 0.18764496 1.2594147 0.5216675c0.3340187 0.3340149 0.5216713 0.7870407 0.5216713 1.2594147l0 24.227234c0 0.98366547 -0.7974205 1.7810822 -1.781086 1.7810822l-7.1241302 0c-0.98366547 0 -1.781086 -0.7974167 -1.781086 -1.7810822z" fill-rule="evenodd"/><path stroke="#922690" stroke-width="5.333333333333333" stroke-linejoin="round" stroke-linecap="butt" d="m44.989956 98.308556l0 0c0 -0.98366547 0.7974205 -1.7810822 1.781086 -1.7810822l7.1241302 0l0 0c0.47237396 0 0.9253998 0.18764496 1.2594147 0.5216675c0.3340187 0.3340149 0.5216713 0.7870407 0.5216713 1.2594147l0 24.227234c0 0.98366547 -0.7974205 1.7810822 -1.781086 1.7810822l-7.1241302 0c-0.98366547 0 -1.781086 -0.7974167 -1.781086 -1.7810822z" fill-rule="evenodd"/><path fill="#922690" d="m36.27656 30.180193l0 0c0 1.9414806 6.2955284 3.5153637 14.061459 3.5153637c7.7659264 0 14.061455 -1.573883 14.061455 -3.5153637l0 73.6509c0 1.9414825 -6.2955284 3.515358 -14.061455 3.515358c-7.76593 0 -14.061459 -1.5738754 -14.061459 -3.515358z" fill-rule="evenodd"/><path fill="#bd7cbc" d="m36.27656 30.180193l0 0c0 -1.9414825 6.2955284 -3.5153637 14.061459 -3.5153637c7.7659264 0 14.061455 1.5738811 14.061455 3.5153637l0 0c0 1.9414806 -6.2955284 3.5153637 -14.061455 3.5153637c-7.76593 0 -14.061459 -1.573883 -14.061459 -3.5153637z" fill-rule="evenodd"/><path fill="#000000" fill-opacity="0.0" d="m64.399475 30.180193l0 0c0 1.9414806 -6.2955284 3.5153637 -14.061455 3.5153637c-7.76593 0 -14.061459 -1.573883 -14.061459 -3.5153637l0 0c0 -1.9414825 6.2955284 -3.5153637 14.061459 -3.5153637c7.7659264 0 14.061455 1.5738811 14.061455 3.5153637l0 73.6509c0 1.9414825 -6.2955284 3.515358 -14.061455 3.515358c-7.76593 0 -14.061459 -1.5738754 -14.061459 -3.515358l0 -73.6509" fill-rule="evenodd"/><path stroke="#922690" stroke-width="5.333333333333333" stroke-linejoin="round" stroke-linecap="butt" d="m64.399475 30.180193l0 0c0 1.9414806 -6.2955284 3.5153637 -14.061455 3.5153637c-7.76593 0 -14.061459 -1.573883 -14.061459 -3.5153637l0 0c0 -1.9414825 6.2955284 -3.5153637 14.061459 -3.5153637c7.7659264 0 14.061455 1.5738811 14.061455 3.5153637l0 73.6509c0 1.9414825 -6.2955284 3.515358 -14.061455 3.515358c-7.76593 0 -14.061459 -1.5738754 -14.061459 -3.515358l0 -73.6509" fill-rule="evenodd"/><path fill="#922690" d="m36.27656 29.442999l0 0c0 -5.39023 6.2955284 -9.759874 14.061459 -9.759874l0 0c7.7659264 0 14.061455 4.369644 14.061455 9.759874l0 0c0 5.39023 -6.2955284 9.759874 -14.061455 9.759874l0 0c-7.76593 0 -14.061459 -4.369644 -14.061459 -9.759874z" fill-rule="evenodd"/><path stroke="#922690" stroke-width="5.333333333333333" stroke-linejoin="round" stroke-linecap="butt" d="m36.27656 29.442999l0 0c0 -5.39023 6.2955284 -9.759874 14.061459 -9.759874l0 0c7.7659264 0 14.061455 4.369644 14.061455 9.759874l0 0c0 5.39023 -6.2955284 9.759874 -14.061455 9.759874l0 0c-7.76593 0 -14.061459 -4.369644 -14.061459 -9.759874z" fill-rule="evenodd"/><path fill="#000000" fill-opacity="0.0" d="m86.319016 105.35985l0 -71.57241" fill-rule="evenodd"/><path stroke="#922690" stroke-width="2.0" stroke-linejoin="round" stroke-linecap="butt" d="m86.319016 105.35985l0 -71.57241" fill-rule="evenodd"/><path fill="#000000" fill-opacity="0.0" d="m93.5868 105.35985l0 -71.57241" fill-rule="evenodd"/><path stroke="#922690" stroke-width="2.0" stroke-linejoin="round" stroke-linecap="butt" d="m93.5868 105.35985l0 -71.57241" fill-rule="evenodd"/><path fill="#000000" fill-opacity="0.0" d="m101.6814 105.35985l0 -71.57241" fill-rule="evenodd"/><path stroke="#922690" stroke-width="2.0" stroke-linejoin="round" stroke-linecap="butt" d="m101.6814 105.35985l0 -71.57241" fill-rule="evenodd"/></g></svg>