<svg xmlns="http://www.w3.org/2000/svg" viewBox="0 0 720 720" width="720" height="720">
	<style>
		tspan { white-space:pre }
		.shp0 { fill-opacity: 0.502;fill: #ffffff } 
		.shp1 { fill: #93278f } 
		.shp2 { fill: #808080 } 
	</style>
	<path id="Layer 1" class="shp0" d="M363 699C182.72 699 37 549.7 37 365C37 180.3 182.72 31 363 31C543.28 31 689 180.3 689 365C689 549.7 543.28 699 363 699Z" />
	<path id="Layer" class="shp1" d="M452.48 264.56C452.48 264.56 394.62 276.47 408.79 343.86C473.34 319.83 452.48 264.56 452.48 264.56Z" />
	<path id="Layer" class="shp1" d="M267.55 264.56C267.55 264.56 325.41 276.47 311.24 343.86C246.69 319.83 267.55 264.56 267.55 264.56Z" />
	<path id="Layer" class="shp2" d="M360.03 263.36C360.03 263.36 292.69 334.89 360.03 432.2C427.34 334.89 360.03 263.36 360.03 263.36Z" />
	<path id="Layer" class="shp2" d="M496.76 328.06C496.76 328.06 398.72 334.2 381.42 451.23C496.97 426.31 496.76 328.06 496.76 328.06Z" />
	<path id="Layer" class="shp2" d="M223.39 328.06C223.39 328.06 321.45 334.2 338.73 451.23C223.06 426.31 223.39 328.06 223.39 328.06Z" />
	<path id="Layer" fill-rule="evenodd" class="shp1" d="M572.5 360.5C572.5 360.5 572.5 360.51 572.5 360.52C572.49 477.88 477.34 573.01 359.98 573C242.62 572.99 147.49 477.84 147.51 360.48C147.52 243.12 242.67 147.99 360.03 148C477.38 148.01 572.5 243.15 572.5 360.5ZM360.03 526.54C451.73 526.54 526.06 452.2 526.07 360.51C526.07 360.49 526.07 360.48 526.07 360.46C526.06 268.74 451.7 194.41 359.99 194.42C268.27 194.43 193.94 268.79 193.95 360.5C193.96 452.22 268.32 526.55 360.03 526.54Z" />
</svg>