<?xml version="1.0" encoding="utf-8"?>
<!-- Generator: Adobe Illustrator 25.2.0, SVG Export Plug-In . SVG Version: 6.00 Build 0)  -->
<svg version="1.1" id="Layer_1" xmlns="http://www.w3.org/2000/svg" xmlns:xlink="http://www.w3.org/1999/xlink" x="0px" y="0px"
	 viewBox="0 0 720 720" style="enable-background:new 0 0 720 720;" xml:space="preserve">
<style type="text/css">
	.st0{fill:#93278F;}
	.st1{fill:#808080;}
</style>
<path class="st0" d="M452.48,264.56c0,0-57.86,11.91-43.69,79.3C473.34,319.83,452.48,264.56,452.48,264.56z"/>
<path class="st0" d="M267.55,264.56c0,0,57.86,11.91,43.69,79.3C246.69,319.83,267.55,264.56,267.55,264.56z"/>
<path class="st1" d="M360.03,263.36c0,0-67.34,71.53,0,168.84C427.34,334.89,360.03,263.36,360.03,263.36z"/>
<path class="st1" d="M496.76,328.06c0,0-98.04,6.14-115.34,123.17C496.97,426.31,496.76,328.06,496.76,328.06z"/>
<path class="st1" d="M223.39,328.06c0,0,98.06,6.14,115.34,123.17C223.06,426.31,223.39,328.06,223.39,328.06z"/>
<path class="st0" d="M360.03,148c-117.36-0.01-212.51,95.12-212.52,212.48C147.49,477.84,242.62,572.99,359.98,573
	c117.36,0.01,212.51-95.12,212.52-212.48c0-0.01,0-0.02,0-0.02C572.5,243.15,477.38,148.01,360.03,148z M360.03,526.54
	c-91.71,0.01-166.07-74.32-166.08-166.04c-0.01-91.71,74.32-166.07,166.04-166.08c91.71-0.01,166.07,74.32,166.08,166.04
	c0,0.02,0,0.03,0,0.05C526.06,452.2,451.73,526.54,360.03,526.54L360.03,526.54z"/>
</svg>
