<svg version="1.1" viewBox="0.0 0.0 144.0 144.0" fill="none" stroke="none" stroke-linecap="square" stroke-miterlimit="10" xmlns:xlink="http://www.w3.org/1999/xlink" xmlns="http://www.w3.org/2000/svg"><clipPath id="p.0"><path d="m0 0l144.0 0l0 144.0l-144.0 0l0 -144.0z" clip-rule="nonzero"/></clipPath><g clip-path="url(#p.0)"><path fill="#000000" fill-opacity="0.0" d="m0 0l144.0 0l0 144.0l-144.0 0z" fill-rule="evenodd"/><path fill="#000000" fill-opacity="0.0" d="m71.51792 31.306784l0 0c9.025154 -3.8119984 21.908173 0.23894691 31.750778 9.98374c9.842606 9.744793 14.337891 22.899448 11.078835 32.420246l-0.0663147 -0.04271698l0 0c3.2392883 -9.489555 -1.2503052 -22.602486 -11.065872 -32.320534c-9.815567 -9.718044 -22.657837 -13.764786 -31.65342 -9.974339z" fill-rule="evenodd"/><path stroke="#922690" stroke-width="5.333333333333333" stroke-linejoin="round" stroke-linecap="butt" d="m71.51792 31.306784l0 0c9.025154 -3.8119984 21.908173 0.23894691 31.750778 9.98374c9.842606 9.744793 14.337891 22.899448 11.078835 32.420246l-0.0663147 -0.04271698l0 0c3.2392883 -9.489555 -1.2503052 -22.602486 -11.065872 -32.320534c-9.815567 -9.718044 -22.657837 -13.764786 -31.65342 -9.974339z" fill-rule="evenodd"/><path fill="#e0cbee" d="m38.55296 105.647255l0 0c0.41431808 -0.43845367 1.0956345 -0.4477539 1.5217628 -0.020774841l3.086216 3.0923462l0 0c0.20463562 0.20503998 0.32185364 0.48532104 0.32586288 0.77919006c0.0040130615 0.29386902 -0.10551071 0.5772476 -0.30447006 0.78780365l-7.16695 7.5844116c-0.41431808 0.43845367 -1.0956345 0.4477539 -1.5217628 0.020774841l-3.0862179 -3.0923462c-0.4261303 -0.42697144 -0.4357071 -1.12854 -0.021390915 -1.5669937z" fill-rule="evenodd"/><path stroke="#922690" stroke-width="5.333333333333333" stroke-linejoin="round" stroke-linecap="butt" d="m38.55296 105.647255l0 0c0.41431808 -0.43845367 1.0956345 -0.4477539 1.5217628 -0.020774841l3.086216 3.0923462l0 0c0.20463562 0.20503998 0.32185364 0.48532104 0.32586288 0.77919006c0.0040130615 0.29386902 -0.10551071 0.5772476 -0.30447006 0.78780365l-7.16695 7.5844116c-0.41431808 0.43845367 -1.0956345 0.4477539 -1.5217628 0.020774841l-3.0862179 -3.0923462c-0.4261303 -0.42697144 -0.4357071 -1.12854 -0.021390915 -1.5669937z" fill-rule="evenodd"/><path fill="#a50021" fill-opacity="0.6863" d="m43.902287 62.12511l71.01575 0.040554047l0.13684845 6.557556l-0.7822876 3.3796234l-3.5579758 5.3118134c-2.2646103 2.9986725 -4.7603607 5.9517593 -7.4757843 8.816666c-21.723824 22.91877 -49.2837 31.509247 -61.5567 19.187164c-7.6705933 -7.701271 -7.554329 -21.74881 -1.084858 -36.796898z" fill-rule="evenodd"/><path fill="#000000" fill-opacity="0.0" d="m78.67782 30.173796c7.890419 0.0109272 16.97673 4.1510944 24.331322 11.489111c8.511543 8.492474 12.96582 19.536057 11.785851 28.488155l-0.7822876 3.3796158l-3.5579681 5.311821c-2.264618 2.9986649 -4.7603607 5.9517593 -7.4757843 8.816666c-21.723824 22.91877 -49.2837 31.509247 -61.5567 19.187157c-12.273003 -12.3220825 -4.6115685 -40.89048 17.112202 -63.809402c2.7154312 -2.8648071 5.5220985 -5.505825 8.378719 -7.910019l4.9962463 -3.7360916l2.936409 -0.87410736c1.2351456 -0.2318592 2.5169601 -0.34471893 3.831993 -0.34290504z" fill-rule="evenodd"/><path stroke="#922690" stroke-width="5.333333333333333" stroke-linejoin="round" stroke-linecap="butt" d="m78.67782 30.173796c7.890419 0.0109272 16.97673 4.1510944 24.331322 11.489111c8.511543 8.492474 12.96582 19.536057 11.785851 28.488155l-0.7822876 3.3796158l-3.5579681 5.311821c-2.264618 2.9986649 -4.7603607 5.9517593 -7.4757843 8.816666c-21.723824 22.91877 -49.2837 31.509247 -61.5567 19.187157c-12.273003 -12.3220825 -4.6115685 -40.89048 17.112202 -63.809402c2.7154312 -2.8648071 5.5220985 -5.505825 8.378719 -7.910019l4.9962463 -3.7360916l2.936409 -0.87410736c1.2351456 -0.2318592 2.5169601 -0.34471893 3.831993 -0.34290504z" fill-rule="evenodd"/><path fill="#000000" fill-opacity="0.0" d="m78.55438 40.641083l0 0c4.037285 -4.265274 10.34169 -5.609894 16.4842 -3.5157967c6.1425095 2.0940971 11.164406 7.300068 13.130806 13.61211c1.9664001 6.3120384 0.57038116 12.744972 -3.650177 16.820251l0 0l0 0c4.220558 -4.075279 5.616577 -10.508213 3.650177 -16.820251c-1.9664001 -6.312042 -6.9882965 -11.518013 -13.130806 -13.61211c-6.1425095 -2.0940971 -12.446915 -0.7494774 -16.4842 3.5157967z" fill-rule="evenodd"/><path stroke="#922690" stroke-width="2.6666666666666665" stroke-linejoin="round" stroke-linecap="butt" d="m78.55438 40.641083l0 0c4.037285 -4.265274 10.34169 -5.609894 16.4842 -3.5157967c6.1425095 2.0940971 11.164406 7.300068 13.130806 13.61211c1.9664001 6.3120384 0.57038116 12.744972 -3.650177 16.820251l0 0l0 0c4.220558 -4.075279 5.616577 -10.508213 3.650177 -16.820251c-1.9664001 -6.312042 -6.9882965 -11.518013 -13.130806 -13.61211c-6.1425095 -2.0940971 -12.446915 -0.7494774 -16.4842 3.5157967z" fill-rule="evenodd"/><path fill="#000000" fill-opacity="0.0" d="m71.72674 33.789795c2.26445 10.019173 4.3080215 21.641846 11.583885 28.72636c6.9053955 7.2591896 17.00776 9.098049 27.954819 11.9202" fill-rule="evenodd"/><path stroke="#922690" stroke-width="1.0" stroke-linejoin="round" stroke-linecap="round" stroke-dasharray="0.0,4.0" d="m71.72674 33.789795c2.26445 10.019173 4.3080215 21.641846 11.583885 28.72636c6.9053955 7.2591896 17.00776 9.098049 27.954819 11.9202" fill-rule="evenodd"/><path fill="#000000" fill-opacity="0.0" d="m38.144825 103.87295l0 0c-5.871994 -6.043869 9.17165 -31.457031 34.07906 -57.569607l12.780556 9.341591z" fill-rule="evenodd"/><path fill="#000000" fill-opacity="0.0" d="m38.144825 103.87295l0 0c-5.871994 -6.043869 9.17165 -31.457031 34.07906 -57.569607" fill-rule="evenodd"/><path stroke="#922690" stroke-width="2.0" stroke-linejoin="round" stroke-linecap="butt" d="m38.144825 103.87295l0 0c-5.871994 -6.043869 9.17165 -31.457031 34.07906 -57.569607" fill-rule="evenodd"/><path fill="#000000" fill-opacity="0.0" d="m43.807262 109.70102l0 0c5.8818436 6.0540085 30.666386 -9.518028 56.081264 -35.235657l-9.221649 -12.992363z" fill-rule="evenodd"/><path fill="#000000" fill-opacity="0.0" d="m43.807262 109.70102l0 0c5.8818436 6.0540085 30.666386 -9.518028 56.081264 -35.235657" fill-rule="evenodd"/><path stroke="#922690" stroke-width="2.0" stroke-linejoin="round" stroke-linecap="butt" d="m43.807262 109.70102l0 0c5.8818436 6.0540085 30.666386 -9.518028 56.081264 -35.235657" fill-rule="evenodd"/><path fill="#000000" fill-opacity="0.0" d="m40.536633 107.11119l41.092915 -42.292915" fill-rule="evenodd"/><path stroke="#922690" stroke-width="2.0" stroke-linejoin="round" stroke-linecap="butt" d="m40.536633 107.11119l41.092915 -42.292915" fill-rule="evenodd"/></g></svg>